<?xml version="1.0" encoding="utf-8"?>
<!-- Generator: Adobe Illustrator 26.2.1, SVG Export Plug-In . SVG Version: 6.00 Build 0)  -->
<svg version="1.1" id="Layer_1" xmlns="http://www.w3.org/2000/svg" xmlns:xlink="http://www.w3.org/1999/xlink" x="0px" y="0px"
	 viewBox="0 0 50 50" style="enable-background:new 0 0 50 50;" xml:space="preserve">
<style type="text/css">
	.st0{fill:#33D9B2;}
</style>
<g>
	<path class="st0" d="M39.88,24.93c0,5.74-0.01,11.47,0,17.21c0,1.86-0.58,3.5-1.85,4.84c-0.88,0.93-2.05,1.4-3.32,1.4
		C28.86,48.4,23,48.44,17.14,48.37c-2.44-0.03-3.94-1.54-4.71-3.7c-0.32-0.91-0.42-1.94-0.42-2.91C11.99,30.34,12,18.93,12,7.52
		c0-2.01,0.66-3.76,2.23-5.08c0.88-0.74,1.94-1.07,3.08-1.08c5.76-0.01,11.51-0.04,17.27,0.01c2.61,0.02,4.19,1.6,4.93,3.91
		c0.27,0.85,0.34,1.78,0.35,2.68C39.89,13.62,39.88,19.28,39.88,24.93z M14.83,7.21c0,10.8,0,21.56,0,32.3c7.44,0,14.84,0,22.23,0
		c0-10.79,0-21.53,0-32.3C29.64,7.21,22.26,7.21,14.83,7.21z M23.6,43.04c-0.04,1.47,1.01,2.62,2.4,2.64
		c1.36,0.02,2.45-1.09,2.47-2.52c0.03-1.43-1-2.55-2.38-2.59C24.71,40.52,23.64,41.59,23.6,43.04z"/>
</g>
</svg>
